<svg width="870" height="246" viewBox="0 0 870 246" fill="none" xmlns="http://www.w3.org/2000/svg">
<circle cx="270" cy="90" r="40" fill="#EDEDED"/>
<g clip-path="url(#clip0_2830_4895)">
<path d="M255.575 106.002L252.365 70H287.635L284.422 105.997L269.978 110L255.575 106.002Z" fill="#E44D26"/>
<path d="M270 106.94L281.67 103.703L284.417 72.9434H270V106.94Z" fill="#F16529"/>
<path d="M270 86.2967H264.159L263.754 81.7751H270V77.3584H258.929L259.034 78.5434L260.119 90.7101H270V86.2967ZM270 97.7634L269.98 97.7684L265.064 96.4401L264.749 92.9184H260.317L260.935 99.8517L269.98 102.363L270 102.357V97.7634Z" fill="#EBEBEB"/>
<path d="M269.985 86.2967V90.7117H275.424L274.91 96.4384L269.985 97.7667V102.36L279.037 99.8517L279.104 99.1051L280.142 87.4817L280.249 86.2951H279.059L269.985 86.2967ZM269.985 77.3584V81.7751H280.65L280.739 80.7817L280.94 78.5434L281.045 77.3584H269.985Z" fill="white"/>
<path d="M270 109.993L269.978 110H270V109.993Z" fill="#DEDEDE"/>
<path d="M270 81.775H263.753L264.157 86.2967H269.983H270V81.775ZM270 70H252.365L255.575 106.002L269.978 110L270 109.993V102.357L269.98 102.363L260.935 99.8517L260.317 92.9183H264.748L265.063 96.44L269.98 97.7683L269.985 97.7667L270 97.7633V90.7117H260.118L259.033 78.545L258.928 77.3583H269.985H270V70Z" fill="#C64321"/>
<path d="M264.749 92.9184H260.317L260.935 99.8517L269.98 102.363L270 102.357L269.985 102.36V97.7667L269.98 97.7684L265.064 96.4401L264.749 92.9184ZM269.985 77.3584H258.929L259.034 78.5434L260.119 90.7101H270H269.985V86.2967H264.159L263.754 81.7751H270H269.985V77.3584Z" fill="#CDCDCD"/>
<path d="M270 97.7634L269.985 97.7667V102.36L270 102.357V97.7634ZM270 86.2967H269.985V90.7117H270V86.2967ZM270 77.3584H269.985V81.7751H270V77.3584Z" fill="#DEDEDE"/>
</g>
<circle cx="600" cy="90" r="40" fill="#EDEDED"/>
<path d="M589.443 104.194V106.865H587.967V99.9038H589.995C590.941 99.9038 591.641 100.076 592.095 100.42C592.549 100.765 592.776 101.288 592.776 101.989C592.776 102.399 592.663 102.763 592.437 103.082C592.212 103.401 591.893 103.651 591.48 103.832L593.527 106.865H591.889L590.228 104.194L589.443 104.194ZM589.443 102.994H589.919C590.385 102.994 590.73 102.916 590.952 102.761C591.174 102.605 591.285 102.361 591.285 102.028C591.285 101.698 591.172 101.463 590.945 101.323C590.718 101.183 590.367 101.113 589.89 101.113H589.443V102.994ZM598.061 106.865L597.866 106.184H597.789C597.634 106.432 597.413 106.623 597.127 106.758C596.842 106.893 596.516 106.96 596.151 106.96C595.526 106.96 595.055 106.793 594.737 106.458C594.419 106.123 594.261 105.642 594.261 105.013V101.542H595.713V104.651C595.713 105.035 595.781 105.323 595.918 105.516C596.054 105.708 596.272 105.803 596.57 105.803C596.977 105.803 597.27 105.668 597.451 105.397C597.632 105.125 597.722 104.675 597.722 104.047V101.542H599.175V106.866L598.061 106.865ZM603.66 101.442C604.289 101.442 604.781 101.687 605.137 102.178C605.492 102.668 605.67 103.34 605.67 104.194C605.67 105.073 605.487 105.754 605.12 106.236C604.754 106.719 604.254 106.96 603.622 106.96C602.997 106.96 602.507 106.733 602.151 106.279H602.051L601.809 106.865H600.699V99.4563H602.151V101.18C602.151 101.399 602.132 101.75 602.094 102.233H602.151C602.491 101.706 602.994 101.442 603.66 101.442ZM603.194 102.604C602.835 102.604 602.573 102.714 602.408 102.935C602.243 103.156 602.157 103.52 602.151 104.028V104.185C602.151 104.756 602.236 105.166 602.406 105.413C602.576 105.661 602.845 105.785 603.213 105.785C603.511 105.785 603.748 105.647 603.925 105.373C604.101 105.098 604.189 104.699 604.189 104.175C604.189 103.652 604.1 103.258 603.922 102.997C603.745 102.735 603.502 102.604 603.194 102.604ZM606.013 101.542H607.603L608.607 104.537C608.693 104.797 608.752 105.105 608.784 105.461H608.812C608.847 105.134 608.915 104.826 609.017 104.537L610.002 101.542H611.56L609.307 107.546C609.101 108.102 608.807 108.518 608.424 108.794C608.042 109.07 607.595 109.208 607.084 109.208C606.833 109.208 606.587 109.181 606.346 109.127V107.975C606.52 108.016 606.711 108.036 606.917 108.036C607.174 108.036 607.399 107.958 607.591 107.801C607.783 107.644 607.933 107.407 608.041 107.089L608.127 106.827L606.013 101.542Z" fill="#1D1D21"/>
<path d="M607.351 88.3646L592.074 97.4358L611.856 96.094L613.379 76.1477L607.351 88.3646Z" fill="url(#paint0_linear_2830_4895)"/>
<path d="M611.888 96.0802L610.188 84.3452L605.557 90.4608L611.888 96.0802Z" fill="url(#paint1_linear_2830_4895)"/>
<path d="M611.91 96.0804L599.455 95.1025L592.141 97.4103L611.91 96.0804Z" fill="url(#paint2_linear_2830_4895)"/>
<path d="M592.158 97.4132L595.27 87.2195L588.423 88.6839L592.158 97.4132Z" fill="url(#paint3_linear_2830_4895)"/>
<path d="M605.556 90.4945L602.692 79.2798L594.499 86.9601L605.556 90.4945Z" fill="url(#paint4_linear_2830_4895)"/>
<path d="M612.729 79.4378L604.984 73.1118L602.827 80.0846L612.729 79.4378Z" fill="url(#paint5_linear_2830_4895)"/>
<path d="M609.107 70.8565L604.552 73.374L601.678 70.8228L609.107 70.8565Z" fill="url(#paint6_linear_2830_4895)"/>
<path d="M586.621 92.1031L588.53 88.6227L586.986 84.4768L586.621 92.1031Z" fill="url(#paint7_linear_2830_4895)"/>
<path d="M586.883 84.3453L588.436 88.7509L595.184 87.2368L602.889 80.0765L605.063 73.1703L601.64 70.7524L595.819 72.9309C593.985 74.6365 590.427 78.0115 590.298 78.0749C590.171 78.1399 587.948 82.3415 586.883 84.3453Z" fill="white"/>
<path d="M592.337 76.4315C596.311 72.4906 601.435 70.1624 603.401 72.1465C605.367 74.1302 603.283 78.9515 599.308 82.8909C595.333 86.8306 590.273 89.2871 588.308 87.3031C586.341 85.3206 588.362 80.3709 592.337 76.4315Z" fill="url(#paint8_linear_2830_4895)"/>
<path d="M592.158 97.4091L595.245 87.1829L605.499 90.4769C601.791 93.9535 597.668 96.8919 592.158 97.4091Z" fill="url(#paint9_linear_2830_4895)"/>
<path d="M602.902 80.0566L605.535 90.4825C608.631 87.2266 611.411 83.7259 612.772 79.3962L602.902 80.0566Z" fill="url(#paint10_linear_2830_4895)"/>
<path d="M612.746 79.4489C613.799 76.2695 614.042 71.7089 609.075 70.8623L604.999 73.1136L612.746 79.4489Z" fill="url(#paint11_linear_2830_4895)"/>
<path d="M586.621 92.0573C586.767 97.3039 590.553 97.3823 592.165 97.4286L588.44 88.7295L586.621 92.0573Z" fill="#9E1209"/>
<path d="M602.918 80.0726C605.298 81.5351 610.093 84.4726 610.19 84.5267C610.341 84.6117 612.258 81.2948 612.693 79.4204L602.918 80.0726Z" fill="url(#paint12_radial_2830_4895)"/>
<path d="M595.241 87.1831L599.368 95.1456C601.809 93.8222 603.72 92.2097 605.47 90.4825L595.241 87.1831Z" fill="url(#paint13_radial_2830_4895)"/>
<path d="M588.424 88.7403L587.839 95.7034C588.943 97.2106 590.461 97.3412 592.053 97.224C590.901 94.3568 588.6 88.6237 588.424 88.7403Z" fill="url(#paint14_linear_2830_4895)"/>
<path d="M604.975 73.1313L613.174 74.2822C612.736 72.4276 611.392 71.2313 609.102 70.8569L604.975 73.1313Z" fill="url(#paint15_linear_2830_4895)"/>
<circle cx="145" cy="134" r="40" fill="#EDEDED"/>
<path d="M164.933 125.155C164.932 124.405 164.771 123.742 164.445 123.174C164.124 122.614 163.644 122.145 163 121.775C157.683 118.728 152.362 115.691 147.047 112.642C145.614 111.82 144.225 111.85 142.803 112.684C140.687 113.924 130.092 119.956 126.935 121.773C125.635 122.521 125.002 123.666 125.002 125.154C125 131.28 125.002 137.406 125 143.533C125 144.267 125.155 144.916 125.467 145.477C125.788 146.053 126.275 146.535 126.933 146.914C130.091 148.731 140.687 154.762 142.802 156.003C144.225 156.837 145.614 156.867 147.048 156.045C152.362 152.995 157.684 149.958 163.001 146.912C163.66 146.533 164.147 146.051 164.468 145.475C164.78 144.915 164.934 144.265 164.935 143.531C164.935 143.531 164.935 131.282 164.933 125.155Z" fill="#5C8DBC"/>
<path d="M145.028 134.284L125.467 145.477C125.788 146.053 126.275 146.535 126.933 146.914C130.091 148.731 140.687 154.762 142.802 156.003C144.225 156.837 145.614 156.867 147.048 156.045C152.362 152.995 157.684 149.958 163.001 146.912C163.66 146.533 164.147 146.051 164.468 145.475L145.028 134.284Z" fill="#1A4674"/>
<path d="M139.234 137.599C140.373 139.574 142.513 140.906 144.967 140.906C147.437 140.906 149.589 139.557 150.722 137.561L145.028 134.284L139.234 137.599Z" fill="#1A4674"/>
<path d="M164.933 125.155C164.932 124.405 164.771 123.742 164.445 123.174L145.028 134.284L164.468 145.475C164.78 144.915 164.934 144.265 164.935 143.531C164.935 143.531 164.935 131.282 164.933 125.155Z" fill="#1B598E"/>
<path d="M163.864 135.084H162.345V136.594H160.825V135.084H159.306V133.574H160.825V132.065H162.345V133.574H163.864V135.084ZM158.321 135.084H156.802V136.594H155.283V135.084H153.764V133.574H155.283V132.065H156.802V133.574H158.321V135.084Z" fill="white"/>
<path d="M150.722 137.561C149.589 139.557 147.437 140.906 144.967 140.906C142.513 140.906 140.373 139.574 139.234 137.599C138.663 136.608 138.362 135.486 138.364 134.343C138.364 130.719 141.32 127.781 144.967 127.781C147.406 127.781 149.535 129.096 150.679 131.051L156.451 127.748C154.157 123.812 149.873 121.164 144.967 121.164C137.643 121.164 131.706 127.065 131.706 134.343C131.706 136.731 132.345 138.97 133.462 140.902C135.75 144.858 140.046 147.523 144.967 147.523C149.898 147.523 154.2 144.848 156.485 140.88L150.722 137.561Z" fill="white"/>
<circle cx="725" cy="134" r="40" fill="#EDEDED"/>
<path d="M725.001 131.637C726.686 131.637 728.052 130.271 728.052 128.586C728.052 126.9 726.686 125.534 725.001 125.534C723.315 125.534 721.949 126.9 721.949 128.586C721.949 130.271 723.315 131.637 725.001 131.637Z" fill="#61DAFB"/>
<path d="M725 139.808C727.396 142.137 729.758 143.516 731.661 143.516C732.285 143.516 732.875 143.384 733.368 143.089C735.074 142.105 735.697 139.644 735.107 136.133C735.008 135.509 734.877 134.886 734.713 134.23C735.369 134.033 735.96 133.836 736.55 133.639C739.864 132.359 741.702 130.587 741.702 128.651C741.702 126.683 739.864 124.911 736.55 123.664C735.96 123.434 735.369 123.237 734.713 123.073C734.877 122.417 735.008 121.794 735.107 121.17C735.664 117.594 735.041 115.1 733.335 114.116C732.843 113.82 732.252 113.689 731.629 113.689C729.758 113.689 727.363 115.067 724.968 117.397C722.605 115.067 720.243 113.689 718.339 113.689C717.716 113.689 717.125 113.82 716.633 114.116C714.927 115.1 714.304 117.561 714.894 121.072C714.993 121.695 715.124 122.319 715.288 122.975C714.632 123.172 714.041 123.369 713.45 123.566C710.136 124.845 708.299 126.617 708.299 128.553C708.299 130.522 710.136 132.294 713.45 133.541C714.041 133.77 714.632 133.967 715.288 134.131C715.124 134.787 714.993 135.411 714.894 136.034C714.336 139.545 714.96 142.039 716.633 142.991C717.125 143.286 717.716 143.417 718.339 143.417C720.243 143.483 722.605 142.105 725 139.808ZM723.163 135.378C723.754 135.411 724.377 135.411 725 135.411C725.624 135.411 726.247 135.411 726.838 135.378C726.247 136.166 725.624 136.887 725 137.576C724.377 136.887 723.754 136.166 723.163 135.378ZM719.094 131.998C719.422 132.556 719.718 133.081 720.079 133.606C719.061 133.475 718.11 133.311 717.191 133.114C717.486 132.228 717.814 131.309 718.208 130.391C718.471 130.916 718.766 131.473 719.094 131.998ZM717.191 124.091C718.11 123.894 719.061 123.73 720.079 123.598C719.75 124.123 719.422 124.648 719.094 125.206C718.766 125.764 718.471 126.289 718.208 126.847C717.782 125.895 717.454 124.976 717.191 124.091ZM718.996 128.586C719.422 127.7 719.882 126.814 720.407 125.928C720.899 125.075 721.457 124.222 722.014 123.369C722.999 123.303 723.983 123.27 725 123.27C726.05 123.27 727.035 123.303 727.986 123.369C728.577 124.222 729.102 125.075 729.594 125.928C730.119 126.814 730.579 127.7 731.005 128.586C730.579 129.472 730.119 130.358 729.594 131.244C729.102 132.097 728.544 132.95 727.986 133.803C727.002 133.869 726.018 133.901 725 133.901C723.95 133.901 722.966 133.869 722.014 133.803C721.424 132.95 720.899 132.097 720.407 131.244C719.882 130.358 719.422 129.472 718.996 128.586ZM731.825 126.814L730.939 125.173C730.611 124.616 730.316 124.091 729.955 123.566C730.972 123.697 731.924 123.861 732.843 124.058C732.547 124.976 732.219 125.895 731.825 126.814ZM731.825 130.358C732.219 131.276 732.547 132.195 732.843 133.081C731.924 133.278 730.972 133.442 729.955 133.573C730.283 133.048 730.611 132.523 730.939 131.966C731.235 131.473 731.53 130.916 731.825 130.358ZM732.58 141.744C732.318 141.908 731.989 141.973 731.629 141.973C730.021 141.973 728.019 140.661 726.05 138.692C727.002 137.675 727.921 136.526 728.839 135.247C730.382 135.116 731.858 134.886 733.236 134.558C733.4 135.148 733.499 135.739 733.597 136.33C734.057 139.119 733.696 141.12 732.58 141.744ZM734.286 124.451C737.961 125.501 740.16 127.109 740.16 128.586C740.16 129.866 738.65 131.145 735.993 132.162C735.468 132.359 734.877 132.556 734.286 132.72C733.86 131.375 733.335 129.997 732.679 128.586C733.335 127.175 733.893 125.797 734.286 124.451ZM731.661 115.198C732.022 115.198 732.318 115.264 732.613 115.428C733.696 116.051 734.089 118.02 733.63 120.842C733.532 121.4 733.4 121.991 733.269 122.614C731.891 122.319 730.414 122.089 728.872 121.925C727.986 120.645 727.035 119.497 726.083 118.48C728.052 116.544 730.054 115.198 731.661 115.198ZM726.838 121.794C726.247 121.761 725.624 121.761 725 121.761C724.377 121.761 723.754 121.761 723.163 121.794C723.754 121.006 724.377 120.284 725 119.595C725.624 120.284 726.247 121.039 726.838 121.794ZM717.421 115.428C717.683 115.264 718.011 115.198 718.372 115.198C719.98 115.198 721.982 116.511 723.95 118.48C722.999 119.497 722.08 120.645 721.161 121.925C719.619 122.056 718.143 122.286 716.764 122.614C716.6 122.023 716.502 121.433 716.404 120.842C715.944 118.053 716.305 116.084 717.421 115.428ZM715.714 132.72C712.039 131.67 709.841 130.062 709.841 128.586C709.841 127.306 711.35 126.026 714.008 125.009C714.533 124.812 715.124 124.616 715.714 124.451C716.141 125.797 716.666 127.175 717.322 128.586C716.666 129.997 716.108 131.408 715.714 132.72ZM716.404 136.33C716.502 135.772 716.633 135.181 716.764 134.558C718.143 134.853 719.619 135.083 721.161 135.247C722.047 136.526 722.999 137.675 723.95 138.692C721.982 140.628 719.98 141.973 718.372 141.973C718.011 141.973 717.716 141.908 717.421 141.744C716.305 141.12 715.944 139.119 716.404 136.33ZM715.025 149.848C715.747 148.962 715.78 147.978 715.386 146.994C714.993 146.009 714.172 145.55 713.155 145.517C711.941 145.484 710.694 145.517 709.48 145.517H709.25V154.016H710.235V150.8H711.777C711.974 150.8 712.138 150.866 712.236 151.03L714.205 154.081C714.238 154.147 714.336 154.245 714.402 154.245H715.682C714.894 153.031 714.139 151.883 713.352 150.701C714.041 150.603 714.632 150.373 715.025 149.848ZM710.235 149.783V146.534H710.596C711.35 146.534 712.138 146.501 712.893 146.567C713.779 146.6 714.402 147.289 714.402 148.175C714.402 149.061 713.68 149.75 712.794 149.783C712.007 149.816 711.219 149.783 710.235 149.783ZM722.933 150.209C722.408 147.912 720.308 147.322 718.7 148.044C717.454 148.601 716.896 149.684 716.863 151.03C716.83 152.047 717.125 152.966 717.913 153.655C718.799 154.442 719.882 154.541 720.997 154.344C721.621 154.212 722.179 153.917 722.605 153.458C722.441 153.228 722.277 152.998 722.113 152.801C721.194 153.589 720.177 153.851 719.061 153.326C718.339 152.966 717.979 152.08 717.913 151.423H722.999V150.997C723.032 150.701 722.999 150.439 722.933 150.209ZM717.979 150.734C717.88 149.75 718.864 148.7 719.947 148.7C721.194 148.667 721.982 149.422 722.014 150.734H717.979ZM728.052 147.88C727.56 147.781 727.035 147.748 726.543 147.781C725.755 147.847 725.066 148.208 724.508 148.798C724.672 149.028 724.804 149.258 725 149.52C725.066 149.455 725.132 149.389 725.197 149.356C725.722 148.864 726.346 148.601 727.1 148.667C727.691 148.7 728.249 148.897 728.413 149.487C728.544 149.947 728.511 150.439 728.544 150.931C728.446 150.931 728.413 150.898 728.38 150.866C727.593 150.209 726.707 150.078 725.755 150.308C724.869 150.537 724.311 151.226 724.246 152.112C724.18 153.13 724.639 153.884 725.525 154.245C726.083 154.475 726.707 154.475 727.297 154.344C727.757 154.245 727.954 153.983 728.61 153.622V154.048H729.529C729.529 152.736 729.561 151.128 729.529 149.619C729.529 148.667 728.971 148.076 728.052 147.88ZM728.511 152.014C728.479 152.112 728.511 152.211 728.511 152.309C728.511 152.998 728.347 153.228 727.691 153.491C727.232 153.655 726.739 153.72 726.247 153.556C725.689 153.392 725.296 152.9 725.296 152.342C725.263 151.784 725.624 151.226 726.182 151.062C726.936 150.8 727.625 150.964 728.249 151.423C728.446 151.587 728.577 151.751 728.511 152.014ZM733.63 148.766C734.483 148.503 735.271 148.667 735.861 149.389L735.96 149.455C736.189 149.258 736.386 149.061 736.649 148.831C736.55 148.733 736.518 148.667 736.452 148.569C735.5 147.551 733.63 147.42 732.482 148.241C730.874 149.422 730.907 151.719 731.694 152.933C732.449 154.081 733.532 154.475 734.811 154.311C735.566 154.212 736.189 153.851 736.682 153.228C736.452 153.031 736.222 152.834 735.993 152.605C735.927 152.67 735.894 152.703 735.861 152.769C734.975 153.753 733.499 153.655 732.711 152.605C732.252 151.981 732.154 151.259 732.285 150.537C732.35 149.717 732.777 149.061 733.63 148.766ZM740.455 153.228C740.389 153.261 740.357 153.294 740.357 153.294C740.094 153.491 739.832 153.523 739.536 153.425C739.241 153.294 739.208 153.031 739.175 152.769V149.028C739.175 148.962 739.175 149.094 739.208 148.766H740.455V147.781H739.143V146.141H738.158V147.912H737.305C737.239 147.912 737.141 147.978 737.141 148.044C737.108 148.273 737.141 148.437 737.141 148.766H738.191V152.966C738.191 153.491 738.322 153.95 738.782 154.212C739.274 154.508 740.225 154.442 740.652 154.081C740.718 154.048 740.75 153.917 740.75 153.884C740.652 153.687 740.554 153.458 740.455 153.228Z" fill="#61DAFB"/>
<g clip-path="url(#clip1_2830_4895)">
<circle cx="435" cy="52" r="52" fill="#EDEDED"/>
<g clip-path="url(#clip2_2830_4895)">
<path d="M434.726 20.0181C418.52 20.0181 419.531 27.0744 419.531 27.0744L419.549 34.3849H435.015V36.5798H413.407C413.407 36.5798 403.036 35.3989 403.036 51.8168C403.036 68.2352 412.088 67.6529 412.088 67.6529H417.49V60.0341C417.49 60.0341 417.199 50.9461 426.397 50.9461H441.736C441.736 50.9461 450.354 51.0859 450.354 42.5837V28.5258C450.354 28.5258 451.663 20.0181 434.726 20.0181ZM426.198 24.9343C426.564 24.9339 426.926 25.006 427.263 25.1462C427.601 25.2865 427.908 25.4922 428.166 25.7517C428.425 26.0112 428.63 26.3192 428.769 26.6583C428.909 26.9974 428.981 27.3608 428.981 27.7277C428.981 28.0946 428.909 28.458 428.769 28.7971C428.63 29.1361 428.425 29.4442 428.166 29.7037C427.908 29.9631 427.601 30.1689 427.263 30.3091C426.926 30.4494 426.564 30.5214 426.198 30.5211C425.833 30.5214 425.471 30.4494 425.133 30.3091C424.796 30.1689 424.489 29.9631 424.23 29.7037C423.972 29.4442 423.767 29.1361 423.627 28.7971C423.487 28.458 423.416 28.0946 423.416 27.7277C423.416 27.3608 423.487 26.9974 423.627 26.6583C423.767 26.3192 423.972 26.0112 424.23 25.7517C424.489 25.4922 424.796 25.2865 425.133 25.1462C425.471 25.006 425.833 24.9339 426.198 24.9343Z" fill="url(#paint16_linear_2830_4895)"/>
<path d="M435.186 83.7807C451.392 83.7807 450.38 76.7244 450.38 76.7244L450.362 69.4141H434.897V67.2192H456.505C456.505 67.2192 466.875 68.4001 466.875 51.9817C466.875 35.5636 457.824 36.1459 457.824 36.1459H452.422V43.7644C452.422 43.7644 452.713 52.8524 443.515 52.8524H428.176C428.176 52.8524 419.558 52.7126 419.558 61.215V75.2732C419.558 75.2732 418.249 83.7807 435.186 83.7807H435.186ZM443.714 78.865C443.348 78.8653 442.986 78.7933 442.648 78.653C442.311 78.5128 442.004 78.307 441.746 78.0476C441.487 77.7881 441.282 77.48 441.142 77.141C441.003 76.8019 440.931 76.4385 440.931 76.0716C440.931 75.7046 441.003 75.3412 441.142 75.0021C441.282 74.663 441.487 74.3549 441.745 74.0954C442.004 73.8359 442.311 73.6302 442.648 73.4899C442.986 73.3496 443.348 73.2776 443.714 73.2779C444.079 73.2776 444.441 73.3496 444.779 73.4899C445.116 73.6301 445.423 73.8359 445.682 74.0953C445.94 74.3548 446.145 74.6629 446.285 75.0019C446.424 75.341 446.496 75.7044 446.496 76.0713C446.496 76.4383 446.424 76.8016 446.285 77.1407C446.145 77.4798 445.94 77.7878 445.682 78.0473C445.423 78.3068 445.116 78.5125 444.779 78.6528C444.441 78.793 444.079 78.8653 443.714 78.865Z" fill="url(#paint17_linear_2830_4895)"/>
</g>
</g>
<rect y="174" width="72" height="72" rx="36" fill="#A1AEE5" fill-opacity="0.02"/>
<rect x="0.694261" y="174.692" width="70.6154" height="70.6154" rx="35.3077" fill="#EDEDED" stroke="#EDEDED" stroke-width="1.38462"/>
<g clip-path="url(#clip3_2830_4895)">
<path d="M16.6167 190.61H55.3859V229.379H16.6167V190.61Z" fill="#FFCA28"/>
<path d="M40.1572 222.856L43.0109 220.967C43.2352 221.669 44.6517 223.339 46.4406 223.339C48.2309 223.339 49.0617 222.362 49.0617 221.714C49.0617 219.948 47.234 219.325 46.3561 219.028C46.2411 218.99 46.1275 218.949 46.0155 218.903C45.974 218.884 45.9117 218.861 45.8313 218.83C44.8552 218.456 41.2538 217.081 41.2538 213.093C41.2538 208.701 45.4935 208.196 46.4517 208.196C47.0789 208.196 50.0932 208.273 51.5969 211.095L48.8276 213.027C48.2198 211.797 47.2118 211.391 46.5901 211.391C45.056 211.391 44.7375 212.516 44.7375 213.027C44.7375 214.464 46.4032 215.108 47.8113 215.651C48.1783 215.793 48.5286 215.927 48.8276 216.069C50.3604 216.794 52.6187 217.979 52.6187 221.714C52.6187 223.583 51.05 226.611 47.101 226.611C41.798 226.611 40.3912 223.427 40.1572 222.856ZM26.311 223.23L29.2866 221.343C29.5192 222.045 30.4247 223.341 31.7401 223.341C33.0541 223.341 33.727 221.991 33.727 221.343V208.611H37.3852V221.343C37.4447 223.098 36.4713 226.611 32.1721 226.611C28.2204 226.611 26.5783 224.263 26.311 223.23Z" fill="#3E3E3E"/>
</g>
<rect x="798" y="174" width="72" height="72" rx="36" fill="#A1AEE5" fill-opacity="0.02"/>
<rect x="798.694" y="174.692" width="70.6154" height="70.6154" rx="35.3077" fill="#EDEDED" stroke="#EDEDED" stroke-width="1.38462"/>
<g clip-path="url(#clip4_2830_4895)">
<path d="M815.426 211.951C814.907 211.432 814.616 210.728 814.616 209.995C814.616 209.261 814.907 208.557 815.426 208.038L832.044 191.42C833.124 190.34 834.877 190.34 835.957 191.42L852.575 208.038C853.655 209.118 853.655 210.871 852.575 211.951L835.957 228.569C834.877 229.649 833.124 229.649 832.044 228.569L815.426 211.951Z" fill="#EE513B"/>
<path d="M828.671 194.853L826.987 196.536L831.333 200.882C831.163 201.249 831.07 201.648 831.06 202.052C831.051 202.457 831.125 202.859 831.278 203.234C831.431 203.609 831.659 203.948 831.949 204.23C832.239 204.513 832.584 204.732 832.963 204.875V215.508C832.331 215.746 831.801 216.194 831.46 216.776C831.119 217.359 830.989 218.041 831.092 218.708C831.194 219.375 831.522 219.987 832.022 220.441C832.521 220.895 833.162 221.163 833.835 221.201C834.509 221.239 835.176 221.045 835.723 220.65C836.271 220.255 836.666 219.684 836.842 219.033C837.019 218.381 836.966 217.689 836.693 217.072C836.42 216.454 835.944 215.95 835.343 215.642V204.891L839.497 209.044C839.219 209.659 839.161 210.351 839.332 211.003C839.504 211.656 839.894 212.229 840.438 212.628C840.982 213.027 841.646 213.227 842.32 213.195C842.994 213.162 843.636 212.899 844.139 212.449C844.642 212 844.975 211.391 845.083 210.725C845.19 210.059 845.066 209.376 844.73 208.791C844.394 208.206 843.868 207.754 843.238 207.511C842.609 207.268 841.915 207.249 841.273 207.456L836.812 202.994C836.971 202.482 836.987 201.936 836.859 201.415C836.73 200.894 836.462 200.419 836.083 200.04C835.704 199.661 835.228 199.392 834.707 199.264C834.187 199.135 833.641 199.151 833.129 199.311L828.671 194.853Z" fill="white"/>
</g>
<defs>
<linearGradient id="paint0_linear_2830_4895" x1="610.13" y1="99.8627" x2="604.486" y2="89.8965" gradientUnits="userSpaceOnUse">
<stop stop-color="#FB7655"/>
<stop offset="0.41" stop-color="#E42B1E"/>
<stop offset="0.99" stop-color="#990000"/>
<stop offset="1" stop-color="#990000"/>
</linearGradient>
<linearGradient id="paint1_linear_2830_4895" x1="612.942" y1="91.4908" x2="605.667" y2="86.6093" gradientUnits="userSpaceOnUse">
<stop stop-color="#871101"/>
<stop offset="0.99" stop-color="#911209"/>
<stop offset="1" stop-color="#911209"/>
</linearGradient>
<linearGradient id="paint2_linear_2830_4895" x1="607.121" y1="100.165" x2="599.846" y2="95.2835" gradientUnits="userSpaceOnUse">
<stop stop-color="#871101"/>
<stop offset="0.99" stop-color="#911209"/>
<stop offset="1" stop-color="#911209"/>
</linearGradient>
<linearGradient id="paint3_linear_2830_4895" x1="591.847" y1="87.9564" x2="592.975" y2="95.2857" gradientUnits="userSpaceOnUse">
<stop stop-color="white"/>
<stop offset="0.23" stop-color="#E57252"/>
<stop offset="0.46" stop-color="#DE3B20"/>
<stop offset="0.99" stop-color="#A60003"/>
<stop offset="1" stop-color="#A60003"/>
</linearGradient>
<linearGradient id="paint4_linear_2830_4895" x1="599.604" y1="81.1129" x2="600.02" y2="88.5932" gradientUnits="userSpaceOnUse">
<stop stop-color="white"/>
<stop offset="0.23" stop-color="#E4714E"/>
<stop offset="0.56" stop-color="#BE1A0D"/>
<stop offset="0.99" stop-color="#A80D00"/>
<stop offset="1" stop-color="#A80D00"/>
</linearGradient>
<linearGradient id="paint5_linear_2830_4895" x1="606.487" y1="74.199" x2="607.732" y2="79.5603" gradientUnits="userSpaceOnUse">
<stop stop-color="white"/>
<stop offset="0.18" stop-color="#E46342"/>
<stop offset="0.4" stop-color="#C82410"/>
<stop offset="0.99" stop-color="#A80D00"/>
<stop offset="1" stop-color="#A80D00"/>
</linearGradient>
<linearGradient id="paint6_linear_2830_4895" x1="602.689" y1="72.3112" x2="608.049" y2="69.6312" gradientUnits="userSpaceOnUse">
<stop stop-color="white"/>
<stop offset="0.54" stop-color="#C81F11"/>
<stop offset="0.99" stop-color="#BF0905"/>
<stop offset="1" stop-color="#BF0905"/>
</linearGradient>
<linearGradient id="paint7_linear_2830_4895" x1="587.148" y1="86.0881" x2="587.59" y2="90.5056" gradientUnits="userSpaceOnUse">
<stop stop-color="white"/>
<stop offset="0.31" stop-color="#DE4024"/>
<stop offset="0.99" stop-color="#BF190B"/>
<stop offset="1" stop-color="#BF190B"/>
</linearGradient>
<linearGradient id="paint8_linear_2830_4895" x1="584.115" y1="91.699" x2="604.855" y2="70.3731" gradientUnits="userSpaceOnUse">
<stop stop-color="#BD0012"/>
<stop offset="0.07" stop-color="white"/>
<stop offset="0.17" stop-color="white"/>
<stop offset="0.27" stop-color="#C82F1C"/>
<stop offset="0.33" stop-color="#820C01"/>
<stop offset="0.46" stop-color="#A31601"/>
<stop offset="0.72" stop-color="#B31301"/>
<stop offset="0.99" stop-color="#E82609"/>
<stop offset="1" stop-color="#E82609"/>
</linearGradient>
<linearGradient id="paint9_linear_2830_4895" x1="600.002" y1="93.851" x2="593.754" y2="92.3091" gradientUnits="userSpaceOnUse">
<stop stop-color="#8C0C01"/>
<stop offset="0.54" stop-color="#990C00"/>
<stop offset="0.99" stop-color="#A80D0E"/>
<stop offset="1" stop-color="#A80D0E"/>
</linearGradient>
<linearGradient id="paint10_linear_2830_4895" x1="610.73" y1="86.3531" x2="605.181" y2="81.3794" gradientUnits="userSpaceOnUse">
<stop stop-color="#7E110B"/>
<stop offset="0.99" stop-color="#9E0C00"/>
<stop offset="1" stop-color="#9E0C00"/>
</linearGradient>
<linearGradient id="paint11_linear_2830_4895" x1="612.77" y1="77.227" x2="610.006" y2="74.2717" gradientUnits="userSpaceOnUse">
<stop stop-color="#79130D"/>
<stop offset="0.99" stop-color="#9E120B"/>
<stop offset="1" stop-color="#9E120B"/>
</linearGradient>
<radialGradient id="paint12_radial_2830_4895" cx="0" cy="0" r="1" gradientUnits="userSpaceOnUse" gradientTransform="translate(606.046 81.4748) scale(6.80062)">
<stop stop-color="#A80D00"/>
<stop offset="0.99" stop-color="#7E0E08"/>
<stop offset="1" stop-color="#7E0E08"/>
</radialGradient>
<radialGradient id="paint13_radial_2830_4895" cx="0" cy="0" r="1" gradientUnits="userSpaceOnUse" gradientTransform="translate(596.627 90.4369) scale(9.04125 9.04125)">
<stop stop-color="#A30C00"/>
<stop offset="0.99" stop-color="#800E08"/>
<stop offset="1" stop-color="#800E08"/>
</radialGradient>
<linearGradient id="paint14_linear_2830_4895" x1="590.223" y1="97.4034" x2="587.97" y2="89.7606" gradientUnits="userSpaceOnUse">
<stop stop-color="#8B2114"/>
<stop offset="0.43" stop-color="#9E100A"/>
<stop offset="0.99" stop-color="#B3100C"/>
<stop offset="1" stop-color="#B3100C"/>
</linearGradient>
<linearGradient id="paint15_linear_2830_4895" x1="607.506" y1="72.0763" x2="612.556" y2="74.3057" gradientUnits="userSpaceOnUse">
<stop stop-color="#B31000"/>
<stop offset="0.44" stop-color="#910F08"/>
<stop offset="0.99" stop-color="#791C12"/>
<stop offset="1" stop-color="#791C12"/>
</linearGradient>
<linearGradient id="paint16_linear_2830_4895" x1="1016.53" y1="593.524" x2="4192.78" y2="3725.5" gradientUnits="userSpaceOnUse">
<stop stop-color="#387EB8"/>
<stop offset="1" stop-color="#366994"/>
</linearGradient>
<linearGradient id="paint17_linear_2830_4895" x1="1325.08" y1="1016.47" x2="4735.37" y2="4227.43" gradientUnits="userSpaceOnUse">
<stop stop-color="#FFE052"/>
<stop offset="1" stop-color="#FFC331"/>
</linearGradient>
<clipPath id="clip0_2830_4895">
<rect width="40" height="40" fill="white" transform="translate(250 70)"/>
</clipPath>
<clipPath id="clip1_2830_4895">
<rect width="104" height="104" fill="white" transform="translate(383)"/>
</clipPath>
<clipPath id="clip2_2830_4895">
<rect width="64" height="64" fill="white" transform="translate(403 20)"/>
</clipPath>
<clipPath id="clip3_2830_4895">
<rect width="44.3077" height="44.3077" fill="white" transform="translate(13.8462 187.846)"/>
</clipPath>
<clipPath id="clip4_2830_4895">
<rect width="44.3077" height="44.3077" fill="white" transform="translate(811.846 187.846)"/>
</clipPath>
</defs>
</svg>
